PathFileType	4	(X/Y/Z)	C:/Users/beibeiliu/ov580/test_trc/User2\sequence.11_training_dense_left.trc
DataRate	CameraRate	NumFrames	NumMarkers	Units	OrigDataRate	OrigDataStartFrame	OrigNumFrames
120	120	9	19	mm	120	100	124
Frame#	Time	ThumbCMC			ThumbMCP			ThumbIP			ThumbTip			IndexMCP			IndexPIP			IndexTip			MiddleMCP			MiddlePIP			MiddleTip			RingMCP			RingPIP			RingTip			PinkyMCP			PinkyPIP			PinkyTip			BackHand1			BackHand2			BackHand3	
		X0	Y0	Z0	X1	Y1	Z1	X2	Y2	Z2	X3	Y3	Z3	X4	Y4	Z4	X5	Y5	Z5	X6	Y6	Z6	X7	Y7	Z7	X8	Y8	Z8	X9	Y9	Z9	X10	Y10	Z10	X11	Y11	Z11	X12	Y12	Z12	X13	Y13	Z13	X14	Y14	Z14	X15	Y15	Z15	X16	Y16	Z16	X17	Y17	Z17	X18	Y18	Z18	
99	0.825	-137.379	-48.189	-26.8058	-124.567	-71.1652	-55.162	-140.924	-90.8298	-81.9437	-170.71	-97.0469	-86.6858	-135.535	-41.9739	-105.996	-124.363	-44.7792	-127.373	-113.947	-47.9706	-155.087	-164.017	-46.1532	-113.488	-154.136	-50.6128	-144.755	-149.061	-53.3559	-176.537	-189.171	-57.3282	-111.634	-185.609	-61.6757	-135.623	-180.378	-67.8422	-163.806	-206.829	-70.0106	-89.1931	-213.127	-77.2179	-114.992	-218.064	-80.3852	-138.649	-198.417	-40.9617	-55.8015	-202.183	-30.954	-26.6896	-167.816	-22.3223	-38.4761	
100	0.833333	-138.486	-41.9841	-19.5497	-118.591	-69.8636	-46.8837	-130.643	-96.1705	-68.5398	-157.674	-110.028	-76.7166	-131.785	-51.2464	-101.311	-119.64	-58.603	-123.026	-107.832	-65.9491	-151.39	-157.393	-65.4885	-114.971	-148.297	-73.9465	-138.299	-138.582	-82.2752	-168.542	-180.17	-78.2355	-104.141	-174.689	-89.4532	-127.497	-169.762	-102.05	-156.102	-200.935	-93.3222	-84.4428	-198.84	-104.132	-106.794	-203.48	-112.802	-128.868	-196.365	-53.6403	-57.1277	-203.787	-36.424	-26.6548	-168.033	-26.7596	-43.0639	
101	0.841667	-142.449	-29.7567	-26.6057	-120.994	-55.4855	-40.4962	-126.163	-86.9983	-59.3866	-145.87	-106.791	-65.7971	-131.116	-48.0129	-101.496	-115.903	-55.0551	-120.28	-102.461	-66.442	-148.342	-152.99	-68.9316	-107.96	-139.532	-83.3454	-136.175	-131.202	-94.7157	-159.925	-170.549	-87.0081	-101.056	-163.2	-103.689	-123.759	-153.273	-115.589	-145.415	-188.007	-102.905	-78.1323	-181.691	-116.277	-97.1418	-184.468	-132.116	-119.252	-195.624	-58.7993	-57.3557	-208.608	-45.4139	-33.7094	-175.892	-24.7559	-51.8132	
102	0.85	-154.711	-13.1619	-30.8921	-124.981	-35.7123	-45.0862	-121.206	-69.1346	-56.4503	-136.551	-94.7482	-59.2125	-134.304	-36.419	-105.624	-117.671	-42.2108	-122.961	-103.113	-52.7601	-142.919	-150.175	-66.6329	-108.918	-131.878	-72.8756	-131.511	-118.393	-87.784	-154.954	-163.114	-88.0885	-95.2907	-148.397	-99.8867	-117.541	-135.183	-114.848	-137.678	-172.921	-100.151	-71.1082	-163.102	-117.577	-92.4006	-160.959	-136.239	-109.314	-194.551	-63.2836	-57.0692	-211.388	-46.7136	-36.3928	-188.923	-25.2428	-55.5532	
103	0.858333	-175.64	-2.14834	-33.3195	-140.826	-10.7505	-45.1842	-121.926	-42.7888	-55.1916	-129.939	-73.3598	-54.7338	-145.454	-25.3287	-105.262	-125.067	-26.6992	-123.731	-104.366	-30.2929	-143.155	-148.751	-54.467	-105.687	-126.796	-61.5085	-128.494	-108.746	-68.2395	-146.919	-154.174	-75.8837	-91.8311	-136.701	-86.4293	-110.223	-114.167	-98.3623	-129.519	-160.999	-91.789	-66.3337	-145.345	-106.386	-84.6183	-134.672	-123.751	-101.367	-191.862	-61.682	-54.457	-215.574	-51.556	-36.1401	-200.94	-25.1798	-56.9294	
104	0.866667	-198.024	7.46431	-34.7402	-159.961	8.28924	-46.9076	-130.629	-15.6008	-52.1308	-128.867	-48.1448	-48.6511	-153.463	-9.08503	-103.225	-130.353	-6.16088	-120.319	-108.034	-5.21391	-138.443	-146.393	-40.619	-100.01	-123.051	-39.6872	-120.686	-95.3096	-40.8183	-140.666	-143.49	-62.7091	-86.4453	-125.528	-65.6541	-100.482	-97.644	-68.3146	-117.962	-149.529	-73.2595	-55.616	-128.003	-84.3477	-72.7393	-110.895	-98.6111	-85.1954	-189.71	-59.0022	-52.0102	-219.909	-57.8877	-32.2391	-211.285	-22.5217	-56.5354	
105	0.875	-209.826	8.67237	-38.245	-175.8	23.2974	-45.3037	-143.526	3.86788	-48.5315	-130.446	-16.9462	-43.1807	-160.904	7.51431	-99.9018	-139.933	13.0237	-113.587	-117.304	23.433	-134.034	-146.487	-18.3406	-97.3446	-121.6	-14.0853	-113.061	-94.6345	-8.548	-131.426	-140.776	-41.8826	-78.5416	-114.554	-39.582	-96.5809	-86.6898	-37.1696	-110.834	-138.246	-57.9956	-51.4698	-116.007	-61.4391	-64.3592	-95.9952	-63.6618	-77.7562	-187.376	-48.0946	-51.7516	-216.353	-55.7306	-35.0333	-210.052	-25.266	-58.3899	
106	0.883333	-222.291	10.9523	-42.8828	-190.247	32.3489	-51.6531	-152.863	18.611	-55.7085	-135.925	-6.5201	-49.4364	-170.655	12.8166	-107.853	-154.571	23.1665	-123.926	-134.641	33.8334	-140.883	-149.413	-10.1394	-104.453	-128.337	-0.0970471	-119.303	-100.97	7.74392	-137.766	-141.163	-29.5722	-84.1953	-116.48	-25.4314	-97.4391	-91.9061	-17.7907	-111.921	-132.933	-41.7841	-59.9057	-109.915	-43.5614	-66.3604	-85.9214	-43.7154	-80.1854	-182.58	-46.3038	-54.853	-212.298	-57.9216	-36.354	-218.063	-24.735	-61.7118	
107	0.891667	-231.512	1.38418	-48.3334	-203.164	24.5629	-65.943	-168.951	21.3641	-70.072	-145.189	2.2711	-65.9323	-190.767	4.32162	-117.833	-175.051	14.6319	-138.675	-156.897	25.8192	-159.073	-162.181	-12.359	-116.503	-143.458	0.219961	-137.148	-122.251	9.50123	-153.651	-146.137	-27.4677	-96.2225	-125.689	-22.4208	-110.321	-106.116	-8.6427	-130.506	-136.777	-36.0606	-69.8246	-115.753	-29.315	-78.8079	-94.0949	-26.1963	-92.9198	-184.927	-49.6892	-61.3314	-210.493	-61.9666	-39.9314	-223.157	-34.7474	-69.0121	
